<?xml version="1.0" encoding="utf-8"?>
<!-- Generator: Adobe Illustrator 27.5.0, SVG Export Plug-In . SVG Version: 6.00 Build 0)  -->
<svg version="1.1" xmlns="http://www.w3.org/2000/svg" xmlns:xlink="http://www.w3.org/1999/xlink" x="0px" y="0px"
	 viewBox="0 0 500 500" style="enable-background:new 0 0 500 500;" xml:space="preserve">
<g id="Background_Complete">
	<g>
		<g>
			<g>
				<g>
					<path style="fill:#EBEBEB;" d="M451.206,386.047c-1.696-4.527-3.425-9.118-6.277-13.021c-2.852-3.903-7.02-7.101-11.819-7.688
						c-4.798-0.587-10.115,2.003-11.679,6.577c-0.688-10.309-2.149-20.885-7.31-29.836c-5.16-8.951-14.788-15.982-25.101-15.352
						c-9.723,0.595-18.048,7.817-22.674,16.391c-4.626,8.573-6.214,18.407-7.733,28.029c-3.686-4.523-11.468-3.101-15.315,1.286
						c-3.847,4.387-4.821,10.518-5.639,16.295h116.018L451.206,386.047z"/>
				</g>
			</g>
		</g>
	</g>
	<g>
		<g>
			<g>
				<g>
					<path style="fill:#F5F5F5;" d="M304.538,107.65c-1.696-4.527-3.425-9.118-6.277-13.021c-2.852-3.903-7.02-7.101-11.819-7.688
						c-4.798-0.587-10.115,2.003-11.679,6.577c-0.688-10.309-2.149-20.885-7.31-29.836c-5.16-8.951-14.788-15.982-25.101-15.352
						c-9.723,0.595-18.048,7.817-22.674,16.391c-4.626,8.573-6.214,18.407-7.733,28.03c-3.686-4.523-11.468-3.101-15.315,1.286
						c-3.847,4.387-4.821,10.518-5.639,16.295h116.018L304.538,107.65z"/>
				</g>
			</g>
		</g>
	</g>
	<g>
		<g>
			<g>
				<g>
					<path style="fill:#EBEBEB;" d="M128.454,406.315c-1.294-3.455-2.614-6.959-4.791-9.938c-2.177-2.979-5.358-5.419-9.02-5.868
						c-3.662-0.448-7.72,1.529-8.913,5.02c-0.525-7.868-1.64-15.939-5.579-22.771c-3.938-6.831-11.286-12.198-19.157-11.716
						c-7.421,0.454-13.775,5.966-17.305,12.509c-3.531,6.543-4.743,14.048-5.902,21.392c-2.813-3.452-8.753-2.367-11.689,0.981
						c-2.936,3.348-3.679,8.028-4.304,12.437h88.546L128.454,406.315z"/>
				</g>
			</g>
		</g>
	</g>
	<g>
		<g>
			<g>
				<g>
					<path style="fill:#EBEBEB;" d="M316.569,325.17c-1.294-3.455-2.614-6.959-4.791-9.938c-2.177-2.979-5.358-5.419-9.02-5.868
						c-3.662-0.448-7.72,1.528-8.913,5.02c-0.525-7.868-1.64-15.939-5.579-22.771c-3.938-6.831-11.287-12.198-19.157-11.716
						c-7.421,0.454-13.775,5.966-17.305,12.509c-3.531,6.543-4.743,14.049-5.902,21.392c-2.813-3.452-8.753-2.367-11.689,0.981
						c-2.936,3.348-3.68,8.028-4.304,12.437h88.546L316.569,325.17z"/>
				</g>
			</g>
		</g>
	</g>
	<g>
		<g>
			<g>
				<g>
					<path style="fill:#F5F5F5;" d="M297.497,426.987c-0.965-2.577-1.95-5.191-3.574-7.413c-1.624-2.222-3.996-4.042-6.728-4.377
						c-2.732-0.334-5.759,1.14-6.649,3.745c-0.392-5.869-1.223-11.89-4.161-16.985c-2.938-5.096-8.419-9.098-14.29-8.74
						c-5.536,0.339-10.275,4.45-12.908,9.331c-2.634,4.881-3.538,10.479-4.402,15.957c-2.098-2.575-6.529-1.766-8.719,0.732
						c-2.19,2.497-2.745,5.988-3.21,9.277h66.049L297.497,426.987z"/>
				</g>
			</g>
		</g>
	</g>
	<g>
		<g>
			<g>
				<g>
					<path style="fill:#F5F5F5;" d="M463.58,264.217c-0.965-2.577-1.95-5.191-3.574-7.413c-1.624-2.222-3.997-4.042-6.728-4.377
						c-2.732-0.334-5.758,1.14-6.649,3.744c-0.392-5.869-1.223-11.89-4.161-16.985c-2.938-5.096-8.419-9.099-14.29-8.74
						c-5.536,0.339-10.275,4.45-12.908,9.331c-2.634,4.881-3.538,10.479-4.402,15.957c-2.098-2.575-6.529-1.766-8.719,0.732
						c-2.19,2.497-2.745,5.988-3.21,9.277h66.049L463.58,264.217z"/>
				</g>
			</g>
		</g>
	</g>
	<g>
		<g>
			<g>
				<g>
					<path style="fill:#F5F5F5;" d="M97.796,147.321c-0.899-2.4-1.816-4.835-3.329-6.904c-1.512-2.07-3.722-3.765-6.267-4.077
						c-2.544-0.311-5.363,1.062-6.193,3.488c-0.365-5.466-1.139-11.074-3.876-15.82c-2.736-4.746-7.841-8.474-13.31-8.14
						c-5.156,0.315-9.57,4.145-12.023,8.691c-2.453,4.546-3.295,9.76-4.1,14.863c-1.954-2.398-6.081-1.644-8.121,0.682
						c-2.04,2.326-2.556,5.577-2.99,8.64h61.518L97.796,147.321z"/>
				</g>
			</g>
		</g>
	</g>
	<g>
		<g>
			<g>
				<g>
					<path style="fill:#EBEBEB;" d="M146.173,81.321c-0.723-1.93-1.46-3.886-2.676-5.55c-1.216-1.664-2.992-3.027-5.038-3.277
						c-2.045-0.25-4.312,0.854-4.978,2.804c-0.293-4.394-0.916-8.902-3.116-12.718c-2.2-3.815-6.304-6.812-10.699-6.544
						c-4.145,0.253-7.693,3.332-9.665,6.987c-1.972,3.654-2.649,7.846-3.296,11.948c-1.571-1.928-4.888-1.322-6.528,0.548
						c-1.64,1.87-2.055,4.483-2.404,6.946h49.453L146.173,81.321z"/>
				</g>
			</g>
		</g>
	</g>
	<g>
		<g>
			<g>
				<g>
					<path style="fill:#EBEBEB;" d="M405.916,450.17c-0.723-1.93-1.46-3.886-2.676-5.55c-1.216-1.664-2.992-3.027-5.038-3.277
						c-2.045-0.25-4.312,0.854-4.978,2.804c-0.293-4.394-0.916-8.902-3.116-12.718c-2.2-3.815-6.304-6.813-10.699-6.544
						c-4.145,0.253-7.693,3.332-9.665,6.987c-1.972,3.655-2.649,7.846-3.296,11.948c-1.571-1.928-4.888-1.322-6.528,0.548
						c-1.639,1.87-2.055,4.484-2.404,6.946h49.453L405.916,450.17z"/>
				</g>
			</g>
		</g>
	</g>
</g>
<g id="Background_Simple" style="display:none;">
	<path style="display:inline;fill:#F5F5F5;" d="M105.124,123.027l2.564-3.242c21.615-27.332,56.265-41.121,90.193-34.707
		c4.361,0.824,8.664,1.964,12.868,3.425c30.265,10.521,54.395,37.396,61.866,68.903c4.393,18.529,3.701,39.149,14.469,54.762
		c14.014,20.319,41.595,24.332,66.001,26.596c24.406,2.264,51.997,6.351,65.923,26.733c8.721,12.765,9.914,29.523,7.18,44.826
		c-7.237,40.514-40.19,73.448-78.585,87.081c-38.395,13.633-81.15,9.966-119.713-2.925C173.866,376.42,124.984,339.193,99.2,287.876
		C73.415,236.559,73.424,171.014,105.124,123.027z"/>
</g>
<g id="Hot_air_ballon_2">
	<g>
		<g>
			<path style="fill:#455A64;" d="M466.18,111.357c-3.94-14.151-12.128-30.933-21.757-37.754c0,0-8.639-18.428-29.371-23.254
				c0,0-9.367-9.858-25.2-7.738c0,0-10.666-7.842-21.73-1.087c-13.571-6.503-21.063,1.696-21.063,1.696
				c-15.832-2.12-24.597,8.764-24.597,8.764c-21.77,8.34-30.676,27.566-30.676,27.566c-4.241,3.11-12.864,16.822-16.822,31.806
				c-3.958,14.984-2.12,30.958-2.12,30.958c-0.103,15.978,8.34,38.451,14.419,47.922c6.079,9.471,30.534,37.744,35.058,42.55
				c4.524,4.806,23.466,22.759,23.466,22.759c1.272,6.503,7.775,13.853,7.775,13.853h13.628h2.401h1.962h16.029
				c0,0,6.503-7.351,7.775-13.853c0,0,18.943-17.953,23.466-22.759c4.524-4.806,28.979-33.079,35.058-42.55
				c6.078-9.471,14.422-28.068,15.142-47.707C469.024,142.531,470.302,126.163,466.18,111.357z"/>
		</g>
		<g>
			<g>
				<g>
					<path style="fill:#E0E0E0;" d="M466.206,149.226c-14.661,7.326-11.948-16.964-11.948-16.964
						c-16.25,18.033-19.291-11.872-19.291-11.872c-5.178,2.271-12.128,4.682-17.358,2.533c-5.23-2.149-8.592-11.245-10.677-16.501
						c-5.451,7.989-14.076,13.517-21.785,12.539c-7.709-0.978-13.934-10.562-17.86-17.269c-3.015,7.329-11.795,18.81-20.658,18.089
						c-7.899-0.643-12.426-6.957-17.197-13.285c-2.72,5.075-5.373,16.583-13.72,17.408c-5.73,0.566-11.248-5.308-14.591-9.997
						c-1.308,3.63-4.677,12.524-8.494,13.088c-3.817,0.565-8.646-3.546-10.175-8.039c0.125,4.667-4.94,20.386-9.957,14.027
						c-0.089,6.334,0.349,8.122,0.349,8.122c-0.016,2.535,0.969,11.234,1.339,14.018c4.018,1.472,10.191-10.33,10.04-15.956
						c1.53,4.493,7.782,7.973,11.599,7.409c3.817-0.565,8.12-7.77,9.429-11.4c3.343,4.688,9.782,12.786,15.099,10.575
						c5.317-2.211,10.306-8.966,12.192-16.853c2.18,3.116,7.802,11.899,17.18,12.803c10.396,1.003,16.077-7.215,18.026-14.958
						c2.938,7.925,7.462,16.558,15.983,17.462c12.755,1.354,19.532-10.494,20.824-13.43c1.482,5.362,3.719,13.74,8.949,15.89
						c5.23,2.149,11.067-1.008,16.811-5.34c0,0,3.056,21.244,19.566,8.743c0,0-3.556,18.299,11.105,10.974
						c0,0-4.729,12.757,2.69,8.229c1.887-5.377,3.378-10.874,4.358-17.03C464.575,160.458,466.206,149.226,466.206,149.226z"/>
				</g>
				<g style="opacity:0.1;">
					<g>
						<path style="fill:#FFFFFF;" d="M427.173,93.367c4.547-1.484,7.846-6.812,6.101-11.265c2.65,3.238,8.184,2.557,11.112-0.432
							c1.569-1.602,2.542-3.62,3.141-5.79c-0.992-0.94-2.002-1.787-3.03-2.516c0,0-8.639-18.428-29.371-23.254
							c0,0-9.367-9.858-25.2-7.738c0,0-10.666-7.842-21.73-1.087c-13.571-6.503-21.063,1.696-21.063,1.696
							c-15.833-2.12-24.597,8.764-24.597,8.764c-21.77,8.34-30.676,27.565-30.676,27.565c-4.241,3.11-12.864,16.822-16.822,31.807
							c-2,7.571-2.519,15.391-2.545,21.279c1.212-0.952,5.597-4.789,6.977-11.383c0.976-4.663,2.785-13.073,4.055-18.962
							c-0.289,2.066-0.375,4.14-0.073,6.145c0.628,4.168,3.406,8.856,8.453,9.006c4.213,0.125,9.77-4.826,9.224-9.006
							c0.812,6.387-0.89-2.779,3.032,2.328c3.922,5.106,11.896,7.698,16.944,3.7c3.631-2.876,4.535-7.932,5.085-12.531
							c1.216-10.154,4.118-12.277,4.118-12.277s3.897,11.323,9.079,13.954c5.182,2.631,11.757,2.274,16.623-0.903
							c8.294-5.415,10.05-16.612,11.031-26.468c1.157,7.308,4.518,14.486,10.332,19.062c5.814,4.576,14.27,6.082,20.826,2.653
							c6.556-3.429,10.139-12.207,6.844-18.832c2.431,4.119,5.021,8.273,8.744,11.275C417.514,93.16,422.626,94.851,427.173,93.367z
							"/>
					</g>
				</g>
				<g>
					<g>
						<path style="fill:#263238;" d="M395.669,251.183c-0.094,0.125-2.012-2.3-6.338-4.412c-2.14-1.066-4.866-1.964-7.964-2.592
							c-3.106-0.6-6.591-0.897-10.247-0.832c-3.656,0.071-7.128,0.498-10.219,1.181c-3.085,0.705-5.786,1.667-7.915,2.753
							c-4.311,2.173-6.035,4.784-6.134,4.658c-0.014-0.011,0.095-0.162,0.315-0.441c0.23-0.27,0.53-0.709,1.03-1.168
							c0.932-0.981,2.48-2.229,4.619-3.376c2.139-1.144,4.865-2.156,7.979-2.895c3.12-0.716,6.625-1.162,10.316-1.233
							c3.689-0.066,7.211,0.248,10.35,0.882c3.132,0.661,5.884,1.609,8.035,2.733c2.152,1.117,3.745,2.293,4.725,3.225
							c0.522,0.431,0.849,0.85,1.101,1.1C395.562,251.028,395.682,251.171,395.669,251.183z"/>
					</g>
				</g>
				<g>
					<g>
						<path style="fill:#263238;" d="M347.903,247.101c0,0-0.111-0.121-0.308-0.374c-0.207-0.272-0.493-0.647-0.861-1.13
							c-0.761-1.02-1.857-2.492-3.263-4.379c-2.818-3.814-6.862-9.359-11.77-16.274c-4.909-6.914-10.68-15.2-16.936-24.505
							c-3.129-4.652-6.38-9.557-9.705-14.672c-3.355-5.093-6.675-10.492-9.669-16.237c-5.979-11.477-10.422-23.182-12.121-34.323
							c-1.74-11.131-1.017-21.374,0.492-29.711c1.514-8.365,3.732-14.902,5.345-19.355c0.808-2.231,1.509-3.935,1.998-5.084
							c0.236-0.559,0.42-0.993,0.553-1.308c0.127-0.294,0.205-0.439,0.205-0.439s-0.044,0.159-0.156,0.459
							c-0.122,0.32-0.289,0.76-0.505,1.327c-0.457,1.161-1.126,2.875-1.904,5.113c-1.552,4.467-3.711,11.007-5.173,19.35
							c-1.458,8.317-2.137,18.51-0.38,29.572c1.714,11.065,6.148,22.715,12.108,34.156c2.986,5.729,6.288,11.104,9.636,16.201
							c3.318,5.116,6.559,10.025,9.676,14.682c6.232,9.315,11.97,17.62,16.839,24.56c4.868,6.94,8.866,12.516,11.633,16.367
							c1.372,1.911,2.442,3.402,3.184,4.436c0.35,0.495,0.622,0.881,0.819,1.16C347.82,246.958,347.903,247.101,347.903,247.101z"/>
					</g>
				</g>
				<g>
					<g>
						<path style="fill:#263238;" d="M345.21,249.774c-0.007,0.006-0.092-0.07-0.253-0.224c-0.178-0.176-0.411-0.405-0.704-0.694
							c-0.618-0.611-1.508-1.533-2.649-2.725c-2.276-2.391-5.508-5.907-9.433-10.312c-3.913-4.428-8.562-9.689-13.721-15.528
							c-5.242-5.776-10.77-12.36-16.156-19.581c-5.385-7.222-10.202-14.354-14.007-21.182c-3.832-6.811-6.702-13.257-8.781-18.784
							c-2.069-5.535-3.382-10.137-4.195-13.335c-0.417-1.597-0.691-2.849-0.873-3.699c-0.085-0.403-0.152-0.722-0.203-0.967
							c-0.043-0.219-0.06-0.331-0.052-0.333c0.009-0.002,0.044,0.107,0.104,0.322c0.064,0.242,0.148,0.557,0.253,0.955
							c0.215,0.841,0.52,2.084,0.967,3.671c0.872,3.178,2.237,7.754,4.343,13.256c2.118,5.495,5.013,11.903,8.855,18.68
							c3.814,6.791,8.63,13.896,14.006,21.106c5.378,7.209,10.877,13.782,16.098,19.574c5.129,5.867,9.749,11.153,13.638,15.602
							c3.888,4.435,7.076,7.986,9.305,10.418c1.101,1.193,1.965,2.128,2.576,2.791c0.278,0.304,0.498,0.545,0.666,0.73
							C345.143,249.679,345.216,249.768,345.21,249.774z"/>
					</g>
				</g>
				<g>
					<g>
						<path style="fill:#263238;" d="M322.659,51.601c0,0-0.115,0.142-0.358,0.401c-0.259,0.271-0.62,0.65-1.087,1.139
							c-0.486,0.502-1.079,1.116-1.778,1.838c-0.713,0.716-1.408,1.659-2.262,2.654c-3.325,4.029-7.714,10.366-11.008,19.165
							c-3.242,8.786-5.263,19.973-4.709,32.373c0.242,6.197,1.171,12.655,2.544,19.265c1.358,6.613,3.149,13.381,5.334,20.201
							c4.349,13.659,9.711,26.249,14.927,37.517c5.225,11.27,10.357,21.218,14.605,29.601c4.266,8.375,7.666,15.18,9.944,19.918
							c1.137,2.37,2.01,4.214,2.584,5.474c0.28,0.615,0.497,1.091,0.652,1.433c0.144,0.324,0.206,0.496,0.206,0.496
							s-0.094-0.156-0.254-0.473c-0.167-0.336-0.399-0.805-0.699-1.411c-0.62-1.261-1.519-3.087-2.672-5.429
							c-2.333-4.709-5.781-11.486-10.089-19.839c-4.289-8.362-9.458-18.295-14.712-29.567c-5.245-11.268-10.63-23.872-14.988-37.562
							c-2.19-6.835-3.983-13.622-5.338-20.256c-1.37-6.627-2.294-13.122-2.524-19.349c-0.531-12.461,1.539-23.706,4.843-32.522
							c3.356-8.83,7.814-15.165,11.197-19.166c0.869-0.988,1.578-1.923,2.304-2.629c0.714-0.71,1.321-1.313,1.817-1.807
							c0.482-0.473,0.856-0.84,1.124-1.103C322.519,51.717,322.659,51.601,322.659,51.601z"/>
					</g>
				</g>
				<g>
					<g>
						<path style="fill:#263238;" d="M360.911,240.423c0,0-0.053-0.173-0.13-0.515c-0.079-0.363-0.189-0.868-0.331-1.519
							c-0.143-0.675-0.318-1.5-0.524-2.471c-0.252-0.971-0.541-2.086-0.866-3.339c-1.29-5.027-3.416-12.234-6.066-21.133
							c-2.635-8.903-5.822-19.492-9.066-31.336c-3.239-11.843-6.598-24.929-9.376-38.832c-2.758-13.901-4.667-27.33-4.917-39.635
							c0.049-3.075-0.01-6.077,0.127-8.986c0.154-2.909,0.41-5.726,0.722-8.442c0.625-5.432,1.552-10.455,2.726-14.956
							c2.322-9.022,5.737-15.868,8.724-20.117c0.374-0.532,0.705-1.05,1.057-1.507c0.362-0.448,0.7-0.868,1.015-1.258
							c0.314-0.388,0.605-0.747,0.871-1.076c0.29-0.305,0.554-0.582,0.792-0.831c0.464-0.48,0.824-0.852,1.082-1.119
							c0.246-0.25,0.381-0.368,0.381-0.368s-0.11,0.144-0.343,0.406c-0.249,0.275-0.595,0.658-1.043,1.152
							c-0.231,0.254-0.488,0.535-0.771,0.845c-0.26,0.333-0.543,0.696-0.849,1.088c-0.308,0.394-0.639,0.816-0.992,1.268
							c-0.344,0.459-0.667,0.98-1.033,1.514c-2.923,4.266-6.268,11.098-8.535,20.095c-1.147,4.49-2.049,9.497-2.654,14.914
							c-0.302,2.708-0.548,5.518-0.694,8.418c-0.129,2.9-0.062,5.889-0.105,8.952c0.276,12.26,2.194,25.661,4.948,39.543
							c2.774,13.884,6.116,26.963,9.328,38.807c3.216,11.844,6.366,22.442,8.956,31.359c2.605,8.912,4.678,16.138,5.909,21.187
							c0.308,1.259,0.582,2.379,0.82,3.354c0.187,0.977,0.346,1.807,0.476,2.486c0.12,0.657,0.213,1.165,0.28,1.53
							C360.893,240.244,360.911,240.423,360.911,240.423z"/>
					</g>
				</g>
				<g>
					<g>
						<path style="fill:#263238;" d="M367.287,240.423c-0.144,0-0.158-44.608-0.031-99.621c0.127-55.032,0.346-99.63,0.49-99.629
							c0.144,0,0.157,44.598,0.03,99.631C367.65,195.816,367.431,240.423,367.287,240.423z"/>
					</g>
				</g>
				<g>
					<g>
						<g>
							<path style="fill:#263238;" d="M391.128,245.442c0,0,0.083-0.146,0.266-0.417c0.198-0.287,0.471-0.683,0.823-1.194
								c0.745-1.063,1.821-2.599,3.2-4.566c2.78-3.965,6.796-9.706,11.683-16.852c4.889-7.144,10.641-15.699,16.89-25.287
								c3.122-4.796,6.368-9.851,9.688-15.119c3.348-5.246,6.578-10.825,9.492-16.742c2.915-5.916,5.389-11.878,7.314-17.79
								c1.91-5.915,3.148-11.799,3.79-17.475c0.668-5.672,0.81-11.117,0.581-16.191c-0.224-5.073-0.697-9.795-1.476-14.046
								c-1.415-8.537-3.745-15.19-5.615-19.638c-0.493-1.1-0.931-2.08-1.313-2.933c-0.404-0.838-0.792-1.524-1.08-2.092
								c-0.284-0.551-0.505-0.979-0.665-1.288c-0.147-0.292-0.211-0.448-0.211-0.448s0.095,0.138,0.257,0.422
								c0.171,0.304,0.407,0.724,0.711,1.265c0.303,0.561,0.707,1.241,1.127,2.074c0.396,0.849,0.85,1.825,1.36,2.921
								c1.932,4.435,4.325,11.096,5.792,19.655c0.804,4.263,1.301,8.999,1.545,14.092c0.248,5.094,0.123,10.563-0.535,16.264
								c-0.632,5.702-1.869,11.631-3.782,17.578c-1.928,5.939-4.407,11.926-7.332,17.862c-2.923,5.936-6.169,11.534-9.528,16.784
								c-3.328,5.267-6.583,10.318-9.718,15.109c-6.274,9.578-12.06,18.114-16.988,25.234c-4.928,7.121-8.99,12.831-11.821,16.76
								c-1.413,1.944-2.516,3.46-3.28,4.51c-0.37,0.498-0.658,0.884-0.866,1.164C391.24,245.317,391.128,245.442,391.128,245.442z"
								/>
						</g>
					</g>
					<g>
						<g>
							<path style="fill:#263238;" d="M393.852,248.084c-0.007-0.006,0.068-0.098,0.219-0.271c0.171-0.191,0.395-0.443,0.679-0.76
								c0.622-0.689,1.501-1.665,2.624-2.909c2.268-2.535,5.515-6.236,9.469-10.859c3.96-4.633,8.665-10.138,13.887-16.249
								c5.259-6.093,11.314-12.549,17.116-19.781c2.905-3.617,5.545-7.286,7.889-10.982c2.383-3.671,4.658-7.227,6.761-10.652
								c4.212-6.846,7.708-13.195,10.272-18.704c2.578-5.503,4.242-10.142,5.219-13.395c0.513-1.621,0.829-2.902,1.047-3.77
								c0.109-0.411,0.196-0.737,0.262-0.985c0.062-0.221,0.098-0.334,0.107-0.332c0.009,0.002-0.01,0.118-0.055,0.343
								c-0.053,0.251-0.123,0.58-0.212,0.997c-0.186,0.877-0.471,2.169-0.955,3.803c-0.92,3.279-2.537,7.953-5.08,13.492
								c-2.528,5.545-6,11.929-10.196,18.8c-2.096,3.438-4.364,7.003-6.743,10.679c-2.34,3.704-4.999,7.406-7.91,11.03
								c-5.82,7.255-11.89,13.702-17.161,19.771c-5.254,6.083-9.987,11.562-13.971,16.174c-3.991,4.594-7.282,8.26-9.598,10.755
								c-1.16,1.245-2.068,2.206-2.697,2.845c-0.3,0.303-0.536,0.542-0.717,0.725C393.946,248.011,393.859,248.09,393.852,248.084z"
								/>
						</g>
					</g>
					<g>
						<g>
							<path style="fill:#263238;" d="M415.126,50.111c0,0,0.141,0.114,0.397,0.357c0.27,0.259,0.646,0.621,1.132,1.087
								c0.5,0.487,1.111,1.082,1.83,1.782c0.733,0.696,1.446,1.623,2.321,2.6c3.4,3.959,7.898,10.253,11.178,19.082
								c3.27,8.804,5.127,20.047,4.538,32.455c-0.267,6.202-1.137,12.676-2.443,19.295c-1.294,6.625-3.056,13.396-5.188,20.224
								c-4.251,13.674-9.501,26.279-14.491,37.616c-4.994,11.344-9.91,21.364-14.061,29.762c-4.183,8.364-7.572,15.139-9.925,19.843
								c-1.169,2.325-2.08,4.138-2.709,5.39c-0.306,0.599-0.544,1.064-0.714,1.397c-0.164,0.313-0.259,0.468-0.259,0.468
								s0.064-0.17,0.212-0.492c0.159-0.338,0.381-0.81,0.668-1.42c0.609-1.262,1.49-3.089,2.621-5.433
								c2.318-4.722,5.655-11.521,9.776-19.916c4.108-8.417,8.988-18.449,13.952-29.792c4.963-11.339,10.192-23.933,14.433-37.577
								c2.127-6.814,3.888-13.566,5.185-20.169c1.31-6.599,2.185-13.044,2.464-19.218c0.612-12.351-1.197-23.534-4.404-32.307
								c-3.218-8.796-7.645-15.091-10.987-19.078c-0.86-0.984-1.559-1.919-2.279-2.624c-0.704-0.712-1.302-1.318-1.791-1.813
								c-0.47-0.482-0.834-0.856-1.095-1.123C415.242,50.251,415.126,50.111,415.126,50.111z"/>
						</g>
					</g>
					<g>
						<g>
							<path style="fill:#263238;" d="M378.044,238.915c0,0,0.015-0.178,0.071-0.522c0.062-0.364,0.149-0.871,0.261-1.525
								c0.121-0.677,0.269-1.505,0.444-2.479c0.226-0.972,0.486-2.09,0.777-3.345c1.165-5.036,3.144-12.247,5.631-21.141
								c2.475-8.898,5.485-19.475,8.553-31.291c3.064-11.815,6.246-24.86,8.869-38.696c2.604-13.836,4.391-27.178,4.605-39.377
								c-0.056-3.046-0.111-6.017-0.164-8.904c-0.19-2.882-0.401-5.68-0.73-8.371c-0.618-5.386-1.516-10.366-2.669-14.828
								c-2.288-8.94-5.691-15.705-8.673-19.897c-0.372-0.525-0.703-1.038-1.051-1.49c-0.358-0.444-0.694-0.859-1.006-1.246
								c-0.31-0.386-0.598-0.742-0.861-1.07c-0.285-0.304-0.544-0.581-0.778-0.83c-0.451-0.486-0.801-0.862-1.052-1.132
								c-0.235-0.257-0.346-0.399-0.346-0.399s0.136,0.116,0.384,0.361c0.26,0.262,0.623,0.627,1.091,1.098
								c0.24,0.245,0.506,0.517,0.799,0.816c0.27,0.324,0.565,0.676,0.883,1.057c0.319,0.384,0.662,0.796,1.029,1.236
								c0.356,0.449,0.694,0.959,1.074,1.482c3.046,4.175,6.52,10.955,8.863,19.921c1.181,4.475,2.103,9.47,2.742,14.871
								c0.339,2.699,0.559,5.504,0.758,8.393c0.061,2.898,0.123,5.88,0.187,8.938c-0.188,12.241-1.965,25.612-4.573,39.466
								c-2.626,13.855-5.825,26.907-8.916,38.721c-3.095,11.816-6.142,22.385-8.662,31.269c-2.532,8.881-4.565,16.073-5.789,21.089
								c-0.309,1.25-0.584,2.363-0.823,3.331c-0.193,0.968-0.357,1.791-0.492,2.464c-0.134,0.65-0.237,1.153-0.312,1.515
								C378.095,238.742,378.044,238.915,378.044,238.915z"/>
						</g>
					</g>
				</g>
				<g>
					<g style="opacity:0.3;">
						<g>
							<path d="M319.725,207.402c-0.355-0.537-0.711-1.07-1.063-1.613C318.969,206.292,319.327,206.835,319.725,207.402z"/>
						</g>
					</g>
					<g style="opacity:0.3;">
						<g>
							<path d="M350.504,202.587c-0.362-1.82-0.803-3.625-1.344-5.41C349.381,198.1,349.834,200.221,350.504,202.587z"/>
						</g>
					</g>
					<g style="opacity:0.3;">
						<g>
							<path d="M349.16,197.176c-0.072-0.3-0.119-0.474-0.141-0.488C349.07,196.85,349.111,197.014,349.16,197.176z"/>
						</g>
					</g>
				</g>
				<g>
					<g>
						<path style="fill:#FFFFFF;" d="M340.033,45.266c0.015,0.061-0.832,0.223-2.285,0.751c-1.453,0.514-3.514,1.415-5.828,2.919
							c-4.673,2.938-10.171,8.463-14.621,15.63c-4.483,7.161-7.099,14.443-8.358,19.815c-0.635,2.691-0.983,4.906-1.158,6.444
							c-0.109,0.767-0.138,1.368-0.192,1.773c-0.045,0.406-0.078,0.619-0.096,0.618c-0.018-0.001-0.021-0.216-0.009-0.624
							c0.02-0.408,0.017-1.014,0.095-1.787c0.114-1.55,0.407-3.787,1.001-6.506c1.174-5.427,3.756-12.79,8.276-20.009
							c4.484-7.225,10.086-12.773,14.865-15.665c2.366-1.482,4.475-2.342,5.961-2.8c0.739-0.25,1.332-0.371,1.733-0.455
							C339.818,45.285,340.03,45.249,340.033,45.266z"/>
					</g>
				</g>
				<g>
					<g>
						<path style="fill:#FFFFFF;" d="M344.08,49.685c-0.052-0.03,0.286-0.761,1.052-1.807c0.762-1.045,1.995-2.376,3.607-3.536
							c1.616-1.156,3.272-1.898,4.506-2.285c1.237-0.391,2.036-0.477,2.048-0.418c0.055,0.163-3.106,0.839-6.25,3.126
							C345.87,47.011,344.217,49.79,344.08,49.685z"/>
					</g>
				</g>
				<g>
					<g>
						<path style="fill:#FFFFFF;" d="M293.772,82.907c-0.036-0.006-0.016-0.299,0.049-0.829c0.058-0.53,0.203-1.29,0.435-2.215
							c0.458-1.851,1.378-4.357,2.887-6.862c1.518-2.502,3.31-4.48,4.736-5.746c0.712-0.635,1.317-1.117,1.759-1.415
							c0.438-0.304,0.689-0.457,0.711-0.428c0.053,0.071-0.876,0.789-2.218,2.111c-1.343,1.318-3.054,3.294-4.543,5.748
							c-1.481,2.458-2.436,4.891-2.978,6.692C294.064,81.765,293.859,82.922,293.772,82.907z"/>
					</g>
				</g>
				<g>
					<g>
						<path style="fill:#FFFFFF;" d="M278.579,105.603c-0.132-0.007-0.016-2.151,0.919-4.6c0.921-2.456,2.253-4.138,2.356-4.056
							c0.13,0.086-0.976,1.854-1.869,4.241C279.075,103.567,278.733,105.625,278.579,105.603z"/>
					</g>
				</g>
				<g>
					<g>
						<path style="fill:#FFFFFF;" d="M377.543,41.541c0.019,0.161-2.037,0.295-4.21,1.463c-2.191,1.137-3.459,2.76-3.581,2.654
							c-0.119-0.051,1.026-1.908,3.338-3.114C375.388,41.313,377.567,41.414,377.543,41.541z"/>
					</g>
				</g>
				<g>
					<g>
						<path style="fill:#FFFFFF;" d="M403.276,46.177c-0.063,0.143-1.547-0.467-3.479-0.648c-1.931-0.202-3.506,0.104-3.539-0.049
							c-0.046-0.124,1.553-0.68,3.591-0.47C401.886,45.205,403.345,46.065,403.276,46.177z"/>
					</g>
				</g>
			</g>
			<g>
				<path style="fill:#263238;" d="M387.817,268.976c0,1.532-7.672,2.775-17.136,2.775c-9.464,0-17.136-1.242-17.136-2.775
					s7.672-2.774,17.136-2.774C380.144,266.201,387.817,267.444,387.817,268.976z"/>
			</g>
			<g>
				<g>
					<path style="fill:#263238;" d="M365.219,278.961c-0.047,0.054-0.702-0.425-1.722-1.246c-1.02-0.821-2.404-1.983-3.909-3.295
						c-3.011-2.62-5.358-4.869-5.22-5.01c0.048-0.031,0.66,0.466,1.675,1.301c1.007,0.834,2.384,2.004,3.888,3.316
						c1.504,1.311,2.85,2.517,3.808,3.409C364.696,278.329,365.266,278.907,365.219,278.961z"/>
				</g>
			</g>
			<g>
				<g>
					<path style="fill:#263238;" d="M367.801,279.053c-0.131,0.06-1.086-1.724-2.14-3.983c-1.055-2.259-1.809-4.135-1.702-4.186
						c0.15-0.078,1.119,1.707,2.174,3.966C367.188,277.11,367.931,278.993,367.801,279.053z"/>
				</g>
			</g>
			<g>
				<g>
					<path style="fill:#263238;" d="M381.755,268.127c0.128,0.066-1.035,2.566-2.596,5.583c-1.562,3.018-2.931,5.41-3.058,5.344
						c-0.128-0.066,1.034-2.565,2.596-5.583C380.258,270.453,381.628,268.061,381.755,268.127z"/>
				</g>
			</g>
			<g>
				<g>
					<path style="fill:#263238;" d="M378.894,278.961c-0.116-0.086,1.532-2.506,3.679-5.405c2.148-2.9,3.982-5.181,4.098-5.095
						c0.116,0.086-1.531,2.505-3.679,5.405C380.844,276.766,379.01,279.047,378.894,278.961z"/>
				</g>
			</g>
			<g>
				<path style="fill:#263238;" d="M381.751,296.137l-2.83-16.262c-0.034-0.193-0.192-0.329-0.385-0.332
					c-6.939-0.093-11.906-0.107-13.127-0.041l-4.424,16.269l-0.965-0.262l4.492-16.665l0.151-0.151
					c0.201-0.199,0.333-0.331,13.886-0.149c0.67,0.009,1.24,0.497,1.355,1.16l2.83,16.262L381.751,296.137z"/>
			</g>
			<g>
				<path style="fill:#263238;" d="M366.085,296.587l-0.999-0.023c0-0.269,1.553-12.38,2.22-17.574l0.992,0.127
					C367.693,283.822,366.117,296.131,366.085,296.587z"/>
			</g>
			<g>
				
					<rect x="375.899" y="279.048" transform="matrix(0.9994 -0.0359 0.0359 0.9994 -10.0706 13.6944)" style="fill:#263238;" width="1.001" height="16.598"/>
			</g>
			<g>
				<g>
					<path style="fill:#AE7461;" d="M358.896,297.301c8.393,0,16.786,0,25.179,0c1.609,0,1.611-2.5,0-2.5
						c-8.393,0-16.786,0-25.179,0C357.288,294.801,357.285,297.301,358.896,297.301L358.896,297.301z"/>
				</g>
			</g>
			<g>
				<rect x="359.793" y="296.307" style="fill:#AE7461;" width="22.989" height="14.469"/>
			</g>
			<g>
				<line style="fill:#AE7461;" x1="374.887" y1="311.032" x2="360.057" y2="311.032"/>
			</g>
			<g>
				<path style="fill:#6F4439;" d="M382.783,310.776c0,0.681-5.146,1.234-11.495,1.234c-6.348,0-11.495-0.552-11.495-1.234
					c0-0.681,5.146-1.233,11.495-1.233C377.636,309.542,382.783,310.095,382.783,310.776z"/>
			</g>
			<g>
				<g>
					<path style="fill:#6F4439;" d="M382.943,296.564c0,0.144-5.181,0.26-11.57,0.26c-6.392,0-11.571-0.117-11.571-0.26
						s5.18-0.26,11.571-0.26C377.763,296.303,382.943,296.42,382.943,296.564z"/>
				</g>
			</g>
		</g>
		<g>
			<g style="opacity:0.2;">
				<g>
					<path d="M389.002,267.662c1.988-2.562,5.462-7.546,6.356-12.115c0,0,8.639-8.188,15.642-14.985
						c-1.052-0.148-2.032-0.526-2.835-1.266c-1.625-1.497-1.23-5.859,0.1-8.212c-1.366,1.753-3.608,4.273-4.938,3.614
						c-1.603-0.794-1.401-4.083-0.499-5.628c0.902-1.545,3.349-6.432,3.349-6.432c-0.957,1.742-3.79,5.576-5.529,6.539
						c-1.739,0.963-3.73,1.092-4.485-0.747c-0.432-1.052-0.699-3.38-0.353-4.463c0.955-2.99,3.137-8.772,3.137-8.772
						s-2.92,5.873-5.157,8.027c-2.236,2.154-5.367,3.854-8.173,2.524c-2.352-1.114-2.568-3.701-2.406-6.298
						c0.213-3.402,0.166-6.253,0.779-8.222c-0.969,2.457-1.09,5.575-2.764,7.617c-1.675,2.042-4.171,3.588-6.809,3.459
						c-3.164-0.156-5.81-2.697-7.051-5.612c-1.241-2.915-1.352-6.167-1.445-9.334c-0.327,4.048-0.923,8.073-1.784,12.042
						c-0.322,1.484-0.769,3.094-2.017,3.958c-1.616,1.118-3.966,0.439-5.326-0.98c-1.36-1.419-1.972-3.375-2.542-5.256
						c-0.57-1.881-1.184-3.837-2.547-5.253c1.026,4.016,1.424,8.192,1.174,12.329c-0.094,1.556-0.339,3.237-1.449,4.333
						c-1.59,1.57-4.372,1.214-6.132-0.163c-1.76-1.377-2.75-3.49-3.697-5.515c-0.947-2.025-1.98-4.126-3.787-5.442
						c1.092,3.479,2.185,6.957,3.277,10.435c0.409,1.301,0.802,2.782,0.129,3.968c-0.83,1.462-2.977,1.693-4.466,0.912
						s-2.453-2.271-3.289-3.73c-0.836-1.459-1.652-2.999-2.993-4.013c0.404,2.031,2.035,3.572,2.933,5.438
						c0.898,1.866,1.352,4.248-0.675,4.676c-1.532,0.323-3.08-0.805-4.094-1.999c-3.032-3.572-6.647-6.827-9.679-10.399
						c1.311,1.7,9.495,12.356,7.595,14.355c7.171,7.061,19.236,18.495,19.236,18.495c1.272,6.503,7.775,13.853,7.775,13.853h13.628
						h2.401h1.962h14.766C387.283,268.917,388.173,268.331,389.002,267.662z"/>
				</g>
			</g>
			<g style="opacity:0.2;">
				<g>
					<path d="M408.265,231.083c0.311-0.399,0.577-0.759,0.776-1.032C408.756,230.313,408.498,230.671,408.265,231.083z"/>
				</g>
			</g>
		</g>
	</g>
</g>
<g id="Hot_air_ballon_1_00000037673019593400566320000002110054091984474009_">
	<g>
		<g>
			<g>
				<path style="fill:#FF725E;" d="M276.503,215.368c-4.966-17.838-15.287-38.992-27.425-47.59c0,0-10.889-23.229-37.023-29.312
					c0,0-11.808-12.427-31.765-9.754c0,0-13.444-9.886-27.391-1.371c-17.106-8.197-26.55,2.138-26.55,2.138
					c-19.957-2.673-31.005,11.048-31.005,11.048c-27.441,10.513-38.667,34.747-38.667,34.747
					c-5.346,3.92-16.215,21.205-21.205,40.093s-2.673,39.024-2.673,39.024c-0.891,21.026,10.513,48.468,18.175,60.406
					c7.662,11.939,38.489,47.577,44.191,53.635c5.702,6.058,29.58,28.689,29.58,28.689c1.604,8.197,9.8,17.462,9.8,17.462h17.179
					h3.027h2.473h20.205c0,0,8.197-9.266,9.8-17.462c0,0,23.877-22.63,29.579-28.689c5.702-6.059,36.529-41.697,44.191-53.635
					c7.662-11.939,18.179-35.38,19.087-60.135C280.087,254.663,281.698,234.031,276.503,215.368z"/>
			</g>
			<g>
				<g style="opacity:0.2;">
					<g>
						<path d="M194.805,254.951c0.087-0.48,0.152-0.966,0.186-1.459C194.926,253.977,194.866,254.464,194.805,254.951z"/>
					</g>
				</g>
				<g style="opacity:0.2;">
					<g>
						<path d="M235.605,330.603c0,0-10.207,9.51-13.219,5.657c-3.012-3.853,7.346-21.963,7.346-21.963s-6.6,7.007-12.945,3.154
							c-6.345-3.853-4.104-16.078-4.104-16.078c-1.289,3.618-6.458,4.488-9.753,2.514c-3.295-1.973-5.026-5.75-6.194-9.409
							c-4.046-12.669-3.605-26.312-1.932-39.528c-1.246,6.845-7.772,12.266-14.775,13.038c-7.494,0.827-15.011-2.967-19.934-8.679
							c-4.922-5.711-7.516-13.111-8.756-20.548c0.207,11.233-1.946,25.467-5.024,36.272c-2.042,7.171-7.965,13.911-18.997,9.213
							c-5.095-2.169-12.868-13.759-12.899-14.042c0.534,5.237,5.211,24.63,4.676,30.185c-0.504,5.24-3.386,10.389-8.546,11.43
							c-3.844,0.775-6.623-1.816-9.967-4.914c-2.877-2.665-13.534-20.831-15.35-24.569c2.105,3.572-0.436,11.445-4.345,12.827
							s-8.304,0.009-11.809-2.204c-8.278-5.228-12.928-14.504-17.18-23.322c-0.492,3.135-4.776,4.4-7.608,2.969
							c-2.832-1.431-4.402-4.504-5.537-7.468c-1.134-2.963-2.093-6.134-4.31-8.404l-1.153,2.695
							c0.806,20.22,11.082,44.509,18.166,55.548c7.662,11.939,38.007,47.396,43.709,53.454c5.702,6.059,29.58,28.689,29.58,28.689
							c1.604,8.197,9.8,17.463,9.8,17.463l2.944,0.03c6.939-2.519,15.007-3.737,18.541-3.028c0.745,0.15-5.089-29.304,0.731-29.874
							c15.734-0.368,26.275,4.266,33.277,13.381c6.139-5.838,22.641-21.579,27.253-26.48c2.393-2.543,9.212-10.296,16.886-19.32
							C227.827,342.578,235.605,330.603,235.605,330.603z"/>
					</g>
				</g>
			</g>
			<g style="opacity:0.2;">
				<g>
					<path style="fill:#FFFFFF;" d="M227.24,192.992c5.732-1.87,9.891-8.587,7.691-14.2c3.341,4.082,10.316,3.223,14.007-0.544
						c1.978-2.019,3.204-4.563,3.959-7.299c-1.25-1.185-2.523-2.253-3.819-3.171c0,0-10.889-23.229-37.023-29.312
						c0,0-11.808-12.427-31.765-9.754c0,0-13.444-9.886-27.391-1.371c-17.106-8.197-26.55,2.138-26.55,2.138
						c-19.957-2.673-31.005,11.048-31.005,11.048c-27.441,10.513-38.667,34.747-38.667,34.747
						c-5.346,3.92-16.215,21.205-21.205,40.093c-2.521,9.543-3.176,19.4-3.208,26.822c1.527-1.201,7.055-6.037,8.795-14.348
						c1.23-5.878,3.51-16.479,5.112-23.902c-0.364,2.604-0.473,5.218-0.092,7.745c0.791,5.254,4.293,11.163,10.655,11.352
						c5.311,0.158,12.316-6.083,11.627-11.352c1.023,8.052,1.283,19.578,6.227,26.015c4.944,6.437,14.996,9.703,21.358,4.664
						c4.576-3.625,5.716-9.999,6.41-15.796c1.532-12.799,2.462-25.67,2.786-38.556c0.386,7.316,4.913,14.273,11.445,17.589
						c6.532,3.317,14.82,2.867,20.954-1.138c10.455-6.825,12.669-20.94,13.905-33.364c1.459,9.212,5.696,18.26,13.024,24.028
						c7.329,5.768,17.987,7.667,26.252,3.344c8.265-4.322,12.781-15.388,8.628-23.738c3.064,5.193,6.329,10.428,11.023,14.212
						S221.508,194.863,227.24,192.992z"/>
				</g>
			</g>
			<g>
				<g>
					<path style="fill:#263238;" d="M187.529,391.923c-0.041,0.041-0.686-0.647-1.976-1.738c-1.271-1.112-3.291-2.524-5.992-3.867
						c-2.699-1.351-6.138-2.489-10.048-3.285c-3.92-0.761-8.318-1.137-12.93-1.055c-4.613,0.089-8.994,0.63-12.894,1.495
						c-3.892,0.893-7.3,2.112-9.986,3.489c-2.684,1.381-4.645,2.879-5.856,4.052c-0.648,0.546-1.049,1.07-1.366,1.384
						c-0.306,0.324-0.474,0.49-0.488,0.479c-0.014-0.011,0.126-0.199,0.408-0.547c0.293-0.337,0.673-0.888,1.306-1.462
						c1.179-1.23,3.131-2.793,5.826-4.233c2.695-1.435,6.128-2.703,10.049-3.63c3.929-0.898,8.343-1.458,12.991-1.548
						c4.646-0.083,9.081,0.311,13.033,1.105c3.943,0.829,7.41,2.018,10.119,3.426c2.712,1.4,4.721,2.875,5.961,4.043
						c0.66,0.539,1.075,1.064,1.395,1.376C187.388,391.734,187.542,391.911,187.529,391.923z"/>
				</g>
			</g>
			<g>
				<g>
					<path style="fill:#263238;" d="M127.319,386.777c0,0-0.137-0.156-0.382-0.476c-0.255-0.337-0.614-0.811-1.08-1.428
						c-0.95-1.279-2.33-3.139-4.103-5.527c-3.545-4.813-8.636-11.806-14.818-20.526c-6.182-8.719-13.453-19.166-21.336-30.896
						c-3.942-5.864-8.039-12.048-12.23-18.495c-4.228-6.42-8.411-13.223-12.184-20.462c-7.535-14.462-13.133-29.21-15.277-43.243
						c-2.196-14.022-1.29-26.926,0.605-37.434c1.902-10.541,4.69-18.782,6.715-24.397c0.526-1.399,0.973-2.65,1.399-3.719
						c0.436-1.059,0.806-1.959,1.107-2.693c0.298-0.713,0.528-1.262,0.69-1.652c0.158-0.371,0.252-0.556,0.252-0.556
						s-0.06,0.199-0.202,0.576c-0.152,0.394-0.365,0.949-0.642,1.67c-0.289,0.738-0.643,1.643-1.06,2.709
						c-0.41,1.074-0.842,2.329-1.352,3.732c-1.965,5.629-4.694,13.873-6.543,24.392c-1.844,10.486-2.706,23.341-0.494,37.295
						c2.158,13.958,7.749,28.65,15.264,43.076c3.766,7.224,7.929,14.002,12.151,20.426c4.184,6.449,8.271,12.636,12.2,18.506
						c7.859,11.741,15.096,22.207,21.239,30.951c6.142,8.745,11.187,15.77,14.681,20.619c1.738,2.413,3.092,4.292,4.024,5.584
						c0.449,0.63,0.793,1.114,1.038,1.458C127.211,386.6,127.319,386.777,127.319,386.777z"/>
				</g>
			</g>
			<g>
				<g>
					<path style="fill:#263238;" d="M123.924,390.147c-0.006,0.006-0.113-0.091-0.313-0.287c-0.216-0.215-0.508-0.507-0.882-0.88
						c-0.775-0.774-1.895-1.938-3.329-3.444c-2.862-3.019-6.93-7.456-11.873-13.012c-4.926-5.581-10.783-12.216-17.285-19.583
						c-6.605-7.283-13.569-15.581-20.358-24.681c-6.787-9.102-12.859-18.088-17.656-26.691c-4.832-8.581-8.452-16.702-11.079-23.664
						c-2.612-6.973-4.275-12.771-5.307-16.799c-0.53-2.012-0.879-3.589-1.113-4.659c-0.111-0.516-0.198-0.92-0.262-1.218
						c-0.056-0.275-0.081-0.417-0.072-0.419c0.009-0.002,0.051,0.136,0.124,0.407c0.076,0.295,0.18,0.694,0.313,1.205
						c0.267,1.061,0.647,2.63,1.207,4.631c1.091,4.008,2.805,9.78,5.456,16.72c2.665,6.931,6.311,15.013,11.153,23.56
						c4.806,8.566,10.877,17.525,17.655,26.615c6.781,9.089,13.716,17.375,20.3,24.674c6.471,7.394,12.3,14.055,17.202,19.657
						c4.906,5.586,8.931,10.058,11.746,13.118c1.4,1.509,2.494,2.687,3.257,3.509c0.358,0.388,0.638,0.691,0.845,0.915
						C123.837,390.031,123.93,390.141,123.924,390.147z"/>
				</g>
			</g>
			<g>
				<g>
					<path style="fill:#263238;" d="M95.498,140.345c0,0-0.149,0.176-0.456,0.501c-0.322,0.335-0.779,0.811-1.375,1.431
						c-0.611,0.629-1.362,1.402-2.246,2.313c-0.901,0.902-1.778,2.089-2.857,3.342c-4.199,5.075-9.74,13.063-13.901,24.158
						c-4.095,11.079-6.649,25.188-5.953,40.827c0.303,7.815,1.474,15.961,3.205,24.295c1.712,8.339,3.969,16.872,6.725,25.471
						c5.483,17.222,12.245,33.094,18.824,47.297c6.59,14.207,13.064,26.744,18.424,37.308c5.383,10.553,9.675,19.128,12.553,25.097
						c1.436,2.986,2.541,5.309,3.269,6.894c0.359,0.781,0.634,1.381,0.828,1.803c0.184,0.407,0.266,0.622,0.266,0.622
						s-0.114-0.199-0.314-0.599c-0.205-0.417-0.495-1.009-0.874-1.781c-0.775-1.582-1.904-3.887-3.356-6.85
						c-2.933-5.94-7.274-14.486-12.699-25.018c-5.401-10.543-11.911-23.066-18.531-37.274
						c-6.608-14.203-13.392-30.089-18.885-47.342c-2.76-8.614-5.019-17.167-6.728-25.527c-1.727-8.351-2.893-16.534-3.184-24.379
						c-0.673-15.7,1.931-29.867,6.088-40.975c4.222-11.126,9.833-19.112,14.09-24.159c1.093-1.246,1.985-2.425,2.899-3.317
						c0.9-0.899,1.663-1.661,2.285-2.282c0.612-0.604,1.081-1.068,1.412-1.395C95.325,140.495,95.498,140.345,95.498,140.345z"/>
				</g>
			</g>
			<g>
				<g>
					<path style="fill:#263238;" d="M143.716,378.36c0,0-0.058-0.22-0.145-0.653c-0.088-0.451-0.212-1.09-0.374-1.923
						c-0.191-0.846-0.426-1.884-0.702-3.108c-0.311-1.22-0.64-2.636-1.063-4.216c-1.648-6.333-4.309-15.423-7.648-26.641
						c-3.327-11.221-7.322-24.575-11.425-39.5c-4.1-14.923-8.336-31.419-11.835-48.942c-3.48-17.521-5.883-34.448-6.202-49.954
						c-0.17-7.751,0.316-15.116,1.096-21.96c0.785-6.846,1.95-13.175,3.426-18.848c2.919-11.369,7.215-19.997,10.973-25.356
						c0.471-0.671,0.887-1.324,1.329-1.9c0.455-0.565,0.881-1.095,1.277-1.587c0.395-0.49,0.761-0.943,1.095-1.358
						c0.365-0.385,0.697-0.735,0.995-1.049c0.589-0.613,1.041-1.083,1.359-1.414c0.308-0.316,0.475-0.469,0.475-0.469
						s-0.142,0.178-0.437,0.506c-0.309,0.339-0.748,0.821-1.319,1.448c-0.292,0.318-0.617,0.673-0.974,1.063
						c-0.328,0.419-0.686,0.876-1.073,1.371c-0.389,0.495-0.807,1.028-1.254,1.597c-0.435,0.579-0.843,1.235-1.306,1.908
						c-3.693,5.376-7.919,13.99-10.784,25.334c-1.449,5.661-2.59,11.975-3.354,18.805c-0.76,6.83-1.229,14.176-1.046,21.901
						c0.344,15.461,2.757,32.359,6.233,49.861c3.495,17.505,7.715,33.994,11.787,48.917c4.075,14.926,8.033,28.289,11.315,39.523
						c3.293,11.231,5.902,20.341,7.491,26.695c0.408,1.585,0.722,3.006,1.018,4.231c0.258,1.229,0.476,2.272,0.654,3.122
						c0.14,0.838,0.248,1.482,0.324,1.935C143.693,378.134,143.716,378.36,143.716,378.36z"/>
				</g>
			</g>
			<g>
				<g>
					<path style="fill:#263238;" d="M151.753,378.359c-0.144,0-0.131-56.229,0.029-125.574c0.16-69.369,0.406-125.585,0.55-125.585
						c0.144,0,0.131,56.217-0.029,125.586C152.143,322.131,151.897,378.36,151.753,378.359z"/>
				</g>
			</g>
			<g>
				<g>
					<g>
						<path style="fill:#263238;" d="M181.805,384.687c0,0,0.108-0.182,0.341-0.522c0.246-0.354,0.592-0.852,1.044-1.501
							c0.935-1.33,2.296-3.265,4.044-5.749c3.511-4.993,8.579-12.226,14.745-21.23c6.167-9.003,13.423-19.783,21.303-31.868
							c3.937-6.045,8.03-12.416,12.216-19.056c4.222-6.613,8.295-13.648,11.97-21.109c3.676-7.46,6.795-14.979,9.222-22.434
							c2.408-7.46,3.968-14.883,4.777-22.041c0.165-1.793,0.422-3.555,0.505-5.308c0.097-1.752,0.193-3.48,0.287-5.184
							c0.019-1.706,0.038-3.387,0.057-5.043c0.022-1.655-0.088-3.283-0.124-4.884c-0.285-6.397-0.885-12.351-1.869-17.712
							c-1.79-10.764-4.736-19.151-7.101-24.756c-0.624-1.388-1.179-2.622-1.661-3.695c-0.512-1.055-1.003-1.92-1.368-2.635
							c-0.365-0.7-0.645-1.239-0.844-1.62c-0.188-0.367-0.272-0.561-0.272-0.561s0.115,0.177,0.318,0.535
							c0.21,0.376,0.505,0.907,0.89,1.597c0.38,0.708,0.887,1.566,1.415,2.616c0.496,1.07,1.067,2.3,1.708,3.683
							c2.428,5.592,5.436,13.987,7.277,24.773c1.01,5.372,1.633,11.34,1.938,17.757c0.041,1.606,0.155,3.239,0.138,4.899
							c-0.015,1.661-0.03,3.348-0.045,5.06c-0.091,1.71-0.183,3.445-0.277,5.203c-0.08,1.76-0.334,3.53-0.497,5.33
							c-0.798,7.184-2.358,14.652-4.769,22.144c-2.429,7.483-5.554,15.026-9.24,22.506c-3.683,7.48-7.773,14.534-12.005,21.151
							c-4.194,6.639-8.296,13.007-12.246,19.046c-7.905,12.075-15.194,22.837-21.401,31.815
							c-6.206,8.979-11.321,16.181-14.883,21.139c-1.782,2.46-3.17,4.376-4.124,5.693c-0.469,0.636-0.83,1.125-1.086,1.471
							C181.943,384.526,181.805,384.687,181.805,384.687z"/>
					</g>
				</g>
				<g>
					<g>
						<path style="fill:#263238;" d="M185.239,388.017c-0.007-0.006,0.089-0.12,0.281-0.337c0.21-0.232,0.495-0.548,0.861-0.953
							c0.776-0.856,1.89-2.085,3.317-3.659c2.865-3.191,6.963-7.851,11.952-13.675c5.001-5.814,10.876-12.804,17.516-20.472
							c6.63-7.677,14.265-15.814,21.581-24.933c1.82-2.287,3.581-4.576,5.244-6.884c1.659-2.312,3.21-4.642,4.703-6.965
							c3.004-4.629,5.87-9.112,8.52-13.431c5.308-8.633,9.711-16.641,12.938-23.59c3.245-6.941,5.336-12.794,6.561-16.897
							c0.298-1.029,0.595-1.934,0.798-2.733c0.2-0.793,0.37-1.468,0.51-2.024c0.138-0.528,0.245-0.94,0.324-1.243
							c0.076-0.279,0.119-0.422,0.128-0.42c0.009,0.002-0.017,0.148-0.076,0.431c-0.067,0.306-0.158,0.722-0.274,1.255
							c-0.127,0.56-0.281,1.24-0.462,2.039c-0.187,0.805-0.47,1.716-0.754,2.751c-1.167,4.129-3.211,10.017-6.421,16.995
							c-3.191,6.985-7.571,15.028-12.862,23.685c-2.643,4.332-5.503,8.824-8.502,13.458c-1.488,2.321-3.048,4.67-4.71,6.99
							c-1.667,2.318-3.433,4.614-5.258,6.907c-7.334,9.142-14.983,17.27-21.626,24.923c-6.621,7.673-12.584,14.585-17.6,20.398
							c-5.026,5.794-9.168,10.42-12.081,13.57c-1.46,1.572-2.6,2.786-3.39,3.594c-0.382,0.39-0.68,0.694-0.899,0.918
							C185.354,387.921,185.245,388.023,185.239,388.017z"/>
					</g>
				</g>
				<g>
					<g>
						<path style="fill:#263238;" d="M212.055,138.467c0,0,0.174,0.148,0.496,0.455c0.333,0.322,0.806,0.779,1.422,1.375
							c0.627,0.612,1.396,1.364,2.302,2.25c0.922,0.878,1.819,2.048,2.92,3.28c4.278,4.994,9.939,12.928,14.066,24.053
							c4.114,11.094,6.448,25.258,5.703,40.891c-0.338,7.814-1.436,15.971-3.083,24.312c-1.631,8.348-3.852,16.88-6.539,25.486
							c-5.357,17.233-11.973,33.121-18.259,47.41c-6.291,14.299-12.484,26.931-17.71,37.519
							c-5.268,10.554-9.534,19.099-12.491,25.023c-1.472,2.941-2.617,5.229-3.403,6.799c-0.387,0.764-0.685,1.351-0.894,1.764
							c-0.204,0.396-0.321,0.593-0.321,0.593s0.085-0.213,0.273-0.616c0.199-0.418,0.481-1.013,0.848-1.786
							c0.766-1.581,1.881-3.883,3.316-6.843c2.922-5.941,7.137-14.511,12.342-25.096c5.184-10.607,11.339-23.251,17.602-37.55
							c6.259-14.293,12.854-30.169,18.201-47.372c2.682-8.591,4.902-17.104,6.536-25.431c1.65-8.321,2.754-16.449,3.104-24.235
							c0.769-15.576-1.518-29.68-5.569-40.743c-4.064-11.092-9.654-19.026-13.875-24.048c-1.086-1.239-1.969-2.417-2.878-3.305
							c-0.891-0.898-1.647-1.661-2.263-2.281c-0.6-0.611-1.061-1.081-1.385-1.411C212.205,138.641,212.055,138.467,212.055,138.467z
							"/>
					</g>
				</g>
				<g>
					<g>
						<path style="fill:#263238;" d="M165.313,376.459c0,0,0.02-0.224,0.084-0.659c0.07-0.452,0.17-1.093,0.3-1.928
							c0.167-0.847,0.372-1.887,0.614-3.113c0.28-1.222,0.577-2.638,0.963-4.22c1.507-6.338,3.994-15.429,7.141-26.637
							c3.136-11.211,6.919-24.547,10.808-39.437c3.888-14.887,7.897-31.335,11.202-48.779c3.284-17.443,5.529-34.269,5.786-49.65
							c0.153-7.687-0.375-14.989-1.147-21.78c-0.782-6.791-1.917-13.071-3.374-18.697c-2.891-11.272-7.191-19.802-10.957-25.085
							c-0.471-0.662-0.888-1.307-1.328-1.877c-0.453-0.559-0.877-1.083-1.271-1.569c-0.393-0.486-0.756-0.935-1.088-1.347
							c-0.361-0.383-0.689-0.732-0.983-1.045c-0.576-0.616-1.019-1.089-1.331-1.423c-0.298-0.323-0.442-0.498-0.442-0.498
							s0.168,0.149,0.479,0.46c0.321,0.326,0.777,0.787,1.37,1.389c0.301,0.309,0.636,0.652,1.004,1.03
							c0.339,0.408,0.71,0.853,1.11,1.334c0.401,0.484,0.833,1.004,1.294,1.559c0.447,0.567,0.873,1.21,1.351,1.87
							c3.831,5.265,8.201,13.81,11.147,25.109c1.485,5.639,2.644,11.934,3.446,18.74c0.793,6.803,1.338,14.126,1.198,21.837
							c-0.232,15.424-2.467,32.277-5.754,49.74c-3.309,17.463-7.334,33.917-11.249,48.804c-3.916,14.89-7.736,28.218-10.918,39.416
							c-3.192,11.195-5.733,20.267-7.299,26.585c-0.401,1.577-0.713,2.988-1.008,4.206c-0.261,1.22-0.482,2.256-0.662,3.099
							c-0.152,0.83-0.268,1.468-0.35,1.917C165.368,376.239,165.313,376.459,165.313,376.459z"/>
					</g>
				</g>
			</g>
			<g>
				<g style="opacity:0.3;">
					<g>
						<path d="M91.8,336.737c-0.447-0.677-0.896-1.349-1.34-2.033C90.847,335.337,91.299,336.022,91.8,336.737z"/>
					</g>
				</g>
				<g style="opacity:0.3;">
					<g>
						<path d="M130.598,330.666c-0.456-2.294-1.012-4.569-1.694-6.82C129.182,325.01,129.753,327.685,130.598,330.666z"/>
					</g>
				</g>
				<g style="opacity:0.3;">
					<g>
						<path d="M128.904,323.846c-0.09-0.378-0.15-0.597-0.178-0.616C128.79,323.435,128.842,323.642,128.904,323.846z"/>
					</g>
				</g>
				<g style="opacity:0.3;">
					<g>
						<path d="M209.172,376.719c-4.409,2.633-8.817,5.267-13.226,7.9c-1.191,0.711-2.7,1.429-3.883,0.705
							c-1.363-0.835-1.143-2.948-0.256-4.278c0.887-1.33,2.246-2.348,2.869-3.82c-1.618,1.972-3.404,3.806-5.332,5.476
							c-0.718,0.622-1.533,1.252-2.483,1.271c-1.813,0.037-2.401-1.854-1.622-3.492c0.861-1.811,2.823-4.515,2.823-4.515
							c-1.096,1.129-2.126,2.041-3.082,3.019c-0.956,0.978-2.251,1.489-3.598,1.257c-1.405-0.242-2.348-1.684-2.494-3.102
							c-0.146-1.418,0.323-2.819,0.785-4.167l-2.775,5.764c2.449-5.69,5.65-11.164,8.082-16.922
							c-2.788,3.845-6.424,7.535-10.748,5.559c-4.324-1.977-3.995-6.41-3.199-11.096c0.771-4.538,3.418-11.204,3.209-15.088
							c-2.006,5.024-3.739,10.196-6.759,13.721c-3.02,3.526-9.11,4.827-12.225,1.385c-1.667-1.842-2.061-4.47-2.383-6.932
							c-0.959-7.342,0.377-14.535-1.123-21.852c-0.663,6.534,0.161,11.406-3.286,15.462c-4.002,4.708-9.554,2.782-13.437-2.025
							c-1.887-2.336-3.374-6.549-4.432-10.281c1.053,5.293,1.58,10.685,1.834,16.11c0.115,2.457-0.014,5.263-1.888,6.856
							c-2.944,2.503-7.414,0.061-10.207-2.61c-7.931-7.586-11.174-17.268-16.484-27.501c1.8,5.46,3.846,10.019,5.646,15.479
							c0.527,1.6,1.995,9.5,0.794,10.682c-1.157,1.139-3.083,0.742-4.589,0.134c-4.677-1.889-10.492-8.218-13.905-13.081
							c6.455,9.784,13.183,18.963,20.096,28.307c1.837,2.483,2.322,7.068-0.603,8.059c-1.885,0.638-3.574-1.092-5.158-2.297
							c-14.399-10.956-25.383-20.498-33.954-29.139c9.884,11.933,19.942,23.535,22.984,26.767
							c5.702,6.059,29.58,28.689,29.58,28.689c1.604,8.197,9.923,17.749,9.923,17.749l5.892-0.035
							c-0.796-3.48-3.666-10.894-11.569-24.318c-0.71-1.207,12.749-7.988,22.762-8.814c14.318-1.18,20.951,1.641,22.676,2.161
							l-0.076,0.158c0,0,7.223,1.921,10.627,5.529c2.614,2.77,4.169,4.963,4.751,5.834
							C193.608,391.7,202.334,383.384,209.172,376.719z"/>
					</g>
				</g>
			</g>
			<g>
				<g>
					<path style="fill:#FFFFFF;" d="M117.399,132.36c0.004,0.018-0.254,0.102-0.748,0.245c-0.494,0.142-1.228,0.33-2.14,0.676
						c-1.836,0.64-4.44,1.771-7.364,3.664c-5.904,3.698-12.848,10.665-18.462,19.707c-5.656,9.034-8.949,18.224-10.525,25.002
						c-0.796,3.395-1.227,6.191-1.439,8.131c-0.134,0.967-0.166,1.726-0.229,2.237c-0.052,0.512-0.089,0.781-0.107,0.78
						c-0.018-0.001-0.017-0.271,0.002-0.786c0.03-0.514,0.029-1.277,0.132-2.25c0.151-1.952,0.528-4.769,1.282-8.193
						c1.491-6.834,4.751-16.105,10.442-25.196c5.648-9.099,12.696-16.09,18.706-19.742c2.976-1.871,5.628-2.96,7.496-3.545
						c0.929-0.318,1.675-0.475,2.18-0.586C117.13,132.392,117.395,132.343,117.399,132.36z"/>
				</g>
			</g>
			<g>
				<g>
					<path style="fill:#FFFFFF;" d="M122.5,137.931c-0.049-0.028,0.39-0.939,1.363-2.248c0.968-1.307,2.522-2.974,4.548-4.433
						c2.031-1.453,4.108-2.392,5.656-2.89c1.551-0.503,2.555-0.628,2.566-0.572c0.064,0.168-3.94,0.993-7.918,3.885
						C124.703,134.515,122.639,138.045,122.5,137.931z"/>
				</g>
			</g>
			<g>
				<g>
					<path style="fill:#FFFFFF;" d="M59.085,179.808c-0.035-0.006-0.003-0.374,0.088-1.04c0.082-0.666,0.271-1.621,0.569-2.784
						c0.589-2.327,1.752-5.476,3.651-8.628c1.909-3.147,4.158-5.641,5.944-7.243c0.892-0.804,1.649-1.416,2.201-1.797
						c0.547-0.389,0.858-0.59,0.88-0.561c0.056,0.074-1.126,0.967-2.828,2.626c-1.704,1.654-3.871,4.145-5.752,7.245
						c-1.87,3.105-3.069,6.18-3.742,8.458C59.418,178.361,59.177,179.823,59.085,179.808z"/>
				</g>
			</g>
			<g>
				<g>
					<path style="fill:#FFFFFF;" d="M39.934,208.416c-0.129-0.005,0.046-2.696,1.222-5.774c1.157-3.086,2.807-5.219,2.907-5.137
						c0.134,0.086-1.29,2.304-2.42,5.322C40.493,205.835,40.091,208.44,39.934,208.416z"/>
				</g>
			</g>
			<g>
				<g>
					<path style="fill:#FFFFFF;" d="M164.68,127.664c0.024,0.165-2.583,0.303-5.339,1.784c-2.777,1.443-4.36,3.518-4.483,3.405
						c-0.119-0.044,1.341-2.354,4.24-3.866C161.98,127.446,164.711,127.541,164.68,127.664z"/>
				</g>
			</g>
			<g>
				<g>
					<path style="fill:#FFFFFF;" d="M197.117,133.509c-0.062,0.147-1.929-0.654-4.379-0.885c-2.448-0.256-4.436,0.162-4.468,0.006
						c-0.048-0.12,1.965-0.789,4.52-0.524C195.345,132.349,197.188,133.4,197.117,133.509z"/>
				</g>
			</g>
		</g>
		<g>
			<ellipse style="fill:#263238;" cx="156.03" cy="414.351" rx="21.601" ry="3.497"/>
		</g>
		<g>
			<g>
				<path style="fill:#263238;" d="M149.146,426.938c-0.047,0.054-0.862-0.563-2.139-1.607c-1.277-1.044-3.018-2.514-4.914-4.168
					c-3.795-3.303-6.772-6.113-6.625-6.264c0.036-0.016,0.215,0.14,0.578,0.429c0.451,0.375,0.948,0.788,1.501,1.247
					c1.261,1.061,2.992,2.541,4.888,4.195c1.896,1.653,3.598,3.167,4.813,4.282C148.464,426.168,149.193,426.884,149.146,426.938z"
					/>
			</g>
		</g>
		<g>
			<g>
				<path style="fill:#263238;" d="M152.401,427.054c-0.131,0.061-1.307-2.202-2.636-5.049c-0.665-1.424-1.242-2.724-1.64-3.674
					c-0.399-0.95-0.616-1.55-0.566-1.574c0.156-0.081,1.349,2.181,2.679,5.027C151.566,424.633,152.531,426.994,152.401,427.054z"/>
			</g>
		</g>
		<g>
			<g>
				<path style="fill:#263238;" d="M169.991,413.281c0.128,0.066-1.364,3.203-3.332,7.006c-1.968,3.804-3.667,6.833-3.795,6.767
					c-0.128-0.066,1.364-3.202,3.332-7.007C168.164,416.245,169.863,413.215,169.991,413.281z"/>
			</g>
		</g>
		<g>
			<g>
				<path style="fill:#263238;" d="M166.384,426.938c-0.116-0.086,1.985-3.118,4.692-6.772c2.707-3.656,4.995-6.548,5.111-6.463
					c0.115,0.085-1.985,3.117-4.692,6.773C168.788,424.13,166.5,427.024,166.384,426.938z"/>
			</g>
		</g>
		<g>
			<path style="fill:#263238;" d="M170.112,448.566l-3.567-20.498c-0.052-0.302-0.309-0.522-0.61-0.526
				c-9.072-0.121-15.281-0.138-16.651-0.046l-5.601,20.597l-0.965-0.262l5.667-20.985l0.151-0.152
				c0.213-0.211,0.379-0.377,17.412-0.151c0.782,0.01,1.447,0.579,1.583,1.355l3.567,20.498L170.112,448.566z"/>
		</g>
		<g>
			<path style="fill:#263238;" d="M150.108,449.147l-1-0.02c0-0.34,2.141-17.029,2.796-22.136l0.992,0.127
				C152.133,433.064,150.143,448.613,150.108,449.147z"/>
		</g>
		<g>
			
				<rect x="162.739" y="427.047" transform="matrix(0.9994 -0.0359 0.0359 0.9994 -15.5899 6.1376)" style="fill:#263238;" width="1" height="20.921"/>
		</g>
		<g>
			<g>
				<path style="fill:#AE7461;" d="M141.176,449.73c10.58,0,21.159,0,31.739,0c1.609,0,1.611-2.5,0-2.5c-10.58,0-21.159,0-31.739,0
					C139.567,447.23,139.565,449.73,141.176,449.73L141.176,449.73z"/>
			</g>
		</g>
		<g>
			<rect x="142.307" y="448.803" style="fill:#AE7461;" width="28.978" height="18.238"/>
		</g>
		<g>
			<line style="fill:#AE7461;" x1="161.333" y1="467.364" x2="142.64" y2="467.364"/>
		</g>
		<g>
			<path style="fill:#6F4439;" d="M171.285,467.041c0,0.859-6.487,1.555-14.489,1.555c-8.002,0-14.489-0.696-14.489-1.555
				c0-0.859,6.487-1.555,14.489-1.555C164.798,465.486,171.285,466.182,171.285,467.041z"/>
		</g>
		<g>
			<g>
				<path style="fill:#6F4439;" d="M171.488,449.126c0,0.144-6.531,0.26-14.584,0.26c-8.057,0-14.586-0.117-14.586-0.26
					s6.529-0.26,14.586-0.26C164.958,448.866,171.488,448.982,171.488,449.126z"/>
			</g>
		</g>
	</g>
</g>
</svg>
